<svg width="1000" height="1000" viewBox="0 0 1000 1000" fill="none" xmlns="http://www.w3.org/2000/svg">
<rect width="1000" height="1000" rx="100" fill="black"/>
<path fill-rule="evenodd" clip-rule="evenodd" d="M532.5 276.15C537.575 277.746 542.009 280.919 545.156 285.209C548.303 289.498 550 294.68 550 300V425H650C654.573 424.998 659.059 426.25 662.969 428.62C666.88 430.991 670.066 434.388 672.18 438.443C674.293 442.498 675.255 447.055 674.958 451.619C674.662 456.182 673.12 460.577 670.5 464.325L495.5 714.325C492.454 718.688 488.095 721.966 483.058 723.681C478.021 725.396 472.568 725.46 467.492 723.862C462.416 722.264 457.983 719.088 454.837 714.796C451.691 710.505 449.996 705.321 450 700V575H350C345.427 575.002 340.941 573.749 337.03 571.379C333.119 569.009 329.934 565.611 327.82 561.556C325.706 557.501 324.745 552.944 325.041 548.381C325.337 543.817 326.879 539.422 329.5 535.675L504.5 285.675C507.55 281.319 511.909 278.05 516.945 276.342C521.98 274.633 527.429 274.575 532.5 276.175V276.15Z" fill="white"/>
</svg>
